<svg width="247" height="247" viewBox="0 0 247 247" fill="none" xmlns="http://www.w3.org/2000/svg">
<g id="Frame 270988863">
<g id="Group 2087324328">
<g id="Group 2087324327">
<path id="Vector" d="M168.83 204.45L195.155 178.126H92.6387" stroke="#2E2E2E" stroke-width="10" stroke-linecap="round" stroke-linejoin="round"/>
<path id="Vector_2" d="M118.963 120.211L92.6387 146.536H195.155" stroke="#2E2E2E" stroke-width="10" stroke-linecap="round" stroke-linejoin="round"/>
</g>
<g id="Group 2087324326">
<path id="Vector_3" d="M146.659 106.618V183.23C146.659 192.508 142.973 201.405 136.413 207.965C129.853 214.526 120.955 218.211 111.677 218.211H41.8483C37.2608 218.211 32.7184 217.305 28.4817 215.546C24.2451 213.786 20.3976 211.207 17.1599 207.957C13.9222 204.707 11.3581 200.85 9.61463 196.607C7.87119 192.363 6.98274 187.818 7.00025 183.23V66.8482C7.00025 57.6059 10.6717 48.7422 17.207 42.2069C23.7423 35.6716 32.606 32.0001 41.8483 32.0001H72.0411C73.5457 31.9935 75.0369 32.2838 76.4291 32.8544C77.8214 33.425 79.0874 34.2647 80.1546 35.3253L143.2 98.371C144.295 99.4475 145.164 100.731 145.758 102.147C146.352 103.563 146.658 105.082 146.659 106.618Z" stroke="#2E2E2E" stroke-width="10" stroke-miterlimit="10" stroke-linecap="round"/>
<path id="Vector_4" d="M76.8264 37.5849V90.7881C76.8088 92.3188 77.0951 93.8379 77.6688 95.2572C78.2424 96.6765 79.092 97.9679 80.1683 99.0566C81.2446 100.145 82.5262 101.01 83.9389 101.599C85.3515 102.189 86.8672 102.493 88.3981 102.493H141.601C142.047 102.459 142.475 102.3 142.836 102.036C143.197 101.771 143.476 101.41 143.642 100.995C143.808 100.579 143.855 100.126 143.776 99.685C143.697 99.2445 143.497 98.8349 143.197 98.5025L80.8166 35.9888C80.5107 35.6234 80.0971 35.364 79.6349 35.2476C79.1728 35.1313 78.6857 35.1639 78.2432 35.3409C77.8006 35.5179 77.4254 35.8302 77.171 36.2332C76.9165 36.6362 76.7959 37.1093 76.8264 37.5849Z" stroke="#2E2E2E" stroke-width="10" stroke-linecap="round" stroke-linejoin="round"/>
</g>
</g>
</g>
</svg>
