<svg width="247" height="247" viewBox="0 0 247 247" fill="none" xmlns="http://www.w3.org/2000/svg">
<g id="Frame 270988863">
<g id="Group 2087324324">
<path id="Vector" d="M149 104.852V182.833C149 192.249 145.26 201.278 138.602 207.936C131.945 214.593 122.915 218.333 113.5 218.333H42.5C33.0848 218.333 24.0553 214.593 17.3977 207.936C10.7402 201.278 7 192.249 7 182.833V64.5C7 55.0848 10.7402 46.0553 17.3977 39.3977C24.0553 32.7402 33.0848 29 42.5 29H73.1483C76.2527 29.0131 79.2276 30.2455 81.4317 32.4317L145.568 96.5683C147.754 98.7724 148.987 101.747 149 104.852Z" stroke="#2E2E2E" stroke-width="10" stroke-miterlimit="10" stroke-linecap="round"/>
<path id="Vector_2" d="M78 34.6801V88.1668C78 91.3052 79.2467 94.315 81.4659 96.5342C83.6851 98.7534 86.6949 100 89.8333 100H143.32C143.783 99.9936 144.234 99.8513 144.617 99.5908C145.001 99.3303 145.299 98.9632 145.475 98.5348C145.652 98.1064 145.698 97.6357 145.61 97.181C145.521 96.7263 145.301 96.3076 144.977 95.9768L82.0233 33.0234C81.6925 32.6991 81.2738 32.479 80.8191 32.3904C80.3644 32.3018 79.8937 32.3486 79.4653 32.5249C79.0369 32.7013 78.6698 32.9996 78.4093 33.3827C78.1488 33.7658 78.0065 34.2169 78 34.6801Z" stroke="#2E2E2E" stroke-width="10" stroke-linecap="round" stroke-linejoin="round"/>
<path id="Vector_3" d="M78 182.833V135.5" stroke="#2E2E2E" stroke-width="10" stroke-linecap="round" stroke-linejoin="round"/>
<path id="Vector_4" d="M96.5785 164.255L78.0002 182.833L59.4219 164.255" stroke="#2E2E2E" stroke-width="10" stroke-linecap="round" stroke-linejoin="round"/>
</g>
</g>
</svg>
